inDegrees=yes
name=ik_lifting_orientations
DataType=double
version=3
OpenSimVersion=4.5-2024-01-10-34fd6af
endheader
time	pelvis_tilt	pelvis_list	pelvis_rotation	pelvis_tx	pelvis_ty	pelvis_tz	hip_flexion_r	hip_adduction_r	hip_rotation_r	knee_angle_r	knee_angle_r_beta	ankle_angle_r	subtalar_angle_r	mtp_angle_r	hip_flexion_l	hip_adduction_l	hip_rotation_l	knee_angle_l	knee_angle_l_beta	ankle_angle_l	subtalar_angle_l	mtp_angle_l	lumbar_extension	lumbar_bending	lumbar_rotation	arm_flex_r	arm_add_r	arm_rot_r	elbow_flex_r	pro_sup_r	wrist_flex_r	wrist_dev_r	arm_flex_l	arm_add_l	arm_rot_l	elbow_flex_l	pro_sup_l	wrist_flex_l	wrist_dev_l
1.65	-0.5202985374618676	-0.5682449182449574	-99.22285126708339	0	0.9399999998679526	0	45.83745383742053	-10.25904522027649	0	61.05142143034912	1.065548316982218	-4.832490375360058	0	0	45.83745383742053	-10.25904522027649	0	61.05142143034912	1.065548316982218	-4.832490375360058	0	0	-3.634863086429873	2.81222640618094	10.53723855120447	73.50295630408615	8.597829040293924	49.32862615719363	0.07374132485072499	0.8368901251507626	0	0	0	-10.23415857972281	0	89.23223640908739	0.8368901251507626	0	0
1.66	-0.6954533266381524	-0.7289288406933243	-99.4093135145625	0	0.9399999998679526	0	45.83574282670801	-10.25766836631336	0	61.04935144947204	1.06551218900046	-4.833582000038965	0	0	45.83574282670801	-10.25766836631336	0	61.04935144947204	1.06551218900046	-4.833582000038965	0	0	-3.923437513701898	3.031744272977637	10.57979573863764	72.95003902384845	7.579384252686897	48.69855413207031	0.06158321398622939	0.8356001424822258	0	0	0	-10.23993406454828	0	89.23341956990981	0.8356001424822258	0	0
1.67	-0.945196754433223	-0.9644603685328693	-99.69795073064283	0	0.9399999998679526	0	45.83545256763639	-10.25735478248635	0	61.04906608304088	1.065507208416661	-4.833846331868257	0	0	45.83545256763639	-10.25735478248635	0	61.04906608304088	1.065507208416661	-4.833846331868257	0	0	-4.318335768795363	3.31802216053155	10.82100854268957	72.85672539884723	6.857967160806394	47.93859968105441	0.08420117948021533	0.8353984101771542	0	0	0	-10.24078055036011	0	89.233604596071	0.8353984101771542	0	0
1.68	-1.221209261750198	-1.189063376298257	-99.81082860336944	0	0.9399999998679526	0	45.83519441663042	-10.25707622218649	0	61.04881219097462	1.06550277716416	-4.83408104036534	0	0	45.83519441663042	-10.25707622218649	0	61.04881219097462	1.06550277716416	-4.83408104036534	0	0	-4.745772054915795	3.653402981857396	11.05367743536817	72.78380693113668	6.040618056453554	47.45045289072637	0.1416836941285062	0.8352189547696832	0	0	0	-10.24153367697328	0	89.23376919016344	0.8352189547696832	0	0
1.69	-1.488145113484828	-1.412466931495391	-99.91739103485233	0	0.9399999998679526	0	45.83496258162025	-10.25682707385441	0	61.04858355118076	1.065498786646957	-4.834290767249695	0	0	45.83496258162025	-10.25682707385441	0	61.04858355118076	1.065498786646957	-4.834290767249695	0	0	-5.17498065937553	3.977382467615075	11.27332893717296	72.7289419601944	5.534323811409412	47.50598585157708	0.5320998377681028	0.8350576110676474	0	0	0	-10.24221142312238	0	89.2339171724536	0.8350576110676474	0	0
1.7	-1.727219805506053	-1.62333927585147	-100.1104752839185	0	0.9399999998679526	0	45.83377698874315	-10.2555507110427	0	61.04741874865359	1.065478457007722	-4.835364719167742	0	0	45.83377698874315	-10.2555507110427	0	61.04741874865359	1.065478457007722	-4.835364719167742	0	0	-5.685644394296536	4.324950166645007	11.98271549025937	72.7242289269919	5.013167003402965	48.0752909247177	1.626893928467989	0.834233507087848	0	0	0	-10.24566923544623	0	89.23467302956901	0.834233507087848	0	0
1.71	-1.834104938184101	-1.724097510253726	-100.1768797753137	0	0.9399999998679526	0	45.83354904984409	-10.25530597164565	0	61.04719448494028	1.065474542867532	-4.8355704906627	0	0	45.83354904984409	-10.25530597164565	0	61.04719448494028	1.065474542867532	-4.8355704906627	0	0	-6.126672398650768	4.599628295035942	12.60036751762029	72.85769590423874	4.63057254535308	48.78522826384235	2.142258949117563	0.8340749603224989	0	0	0	-10.24633484195313	0	89.23481844654255	0.8340749603224989	0	0
1.72	-1.87129613736511	-1.742486399242851	-99.80687806850817	0	0.9399999998679526	0	45.83330142497975	-10.25504059013742	0	61.04695058779073	1.065470286059236	-4.835793506751285	0	0	45.83330142497975	-10.25504059013742	0	61.04695058779073	1.065470286059236	-4.835793506751285	0	0	-6.246059348476732	4.7508603055634	12.61403716963357	73.07234904906939	4.751150317432034	49.35890731721943	1.716854112622973	0.8339026385932796	0	0	0	-10.24705855799189	0	89.23497649773398	0.8339026385932796	0	0
1.73	-1.885585208883229	-1.743415987172307	-99.80407032082904	0	0.9399999998679526	0	45.83307398455776	-10.25479690372573	0	61.04672666181652	1.065466377813705	-4.835998240479615	0	0	45.83307398455776	-10.25479690372573	0	61.04672666181652	1.065466377813705	-4.835998240479615	0	0	-6.260471645135224	4.765099584562596	12.80061915970411	73.21871208342176	5.068776987828092	49.67822306622195	0.998730884073546	0.833744376757361	0	0	0	-10.2477231584333	0	89.23512165337823	0.833744376757361	0	0
1.74	-1.942384038120778	-1.785953545074639	-100.1695450892904	0	0.9399999998679526	0	45.83285872662807	-10.25456649689307	0	61.04651466531912	1.065462677776823	-4.836191750004971	0	0	45.83285872662807	-10.25456649689307	0	61.04651466531912	1.065462677776823	-4.836191750004971	0	0	-6.294607476962878	4.719512979912656	13.42818700200575	73.36431747715932	5.403076348659099	49.93267998733118	0.4314783652324162	0.8335945654468796	0	0	0	-10.24835235261692	0	89.23525905831507	0.8335945654468796	0	0
1.75	-1.988135198877369	-1.834673852088145	-100.9873399017721	0	0.9399999998679526	0	45.83247324417736	-10.2541559829411	0	61.04613374236401	1.06545602941706	-4.836536105024881	0	0	45.83247324417736	-10.2541559829411	0	61.04613374236401	1.06545602941706	-4.836536105024881	0	0	-6.405390975194285	4.632751505307548	14.55963883530949	73.51446111946252	5.518612447779383	50.15445962581091	0.1953955403442598	0.8333259117641365	0	0	0	-10.24948195679377	0	89.23550546391387	0.8333259117641365	0	0
1.76	-2.045443337566756	-1.845499204802794	-101.778796865966	0	0.9399999998679526	0	45.83228328960615	-10.25395646374922	0	61.04594411078606	1.065452719721659	-4.836702982376256	0	0	45.83228328960615	-10.25395646374922	0	61.04594411078606	1.065452719721659	-4.836702982376256	0	0	-6.520582394457852	4.618086931043761	15.43802263716772	73.54788500156464	5.632264945647825	50.48892777088543	0.09881263489828014	0.8331929912913675	0	0	0	-10.25004272074076	0	89.23562737684225	0.8331929912913675	0	0
1.77	-1.947569540435107	-1.7810903427692	-101.711012063749	0	0.9399999998679526	0	45.83201620439753	-10.25367115729212	0	61.04568109626639	1.06544812925231	-4.836942373695828	0	0	45.83201620439753	-10.25367115729212	0	61.04568109626639	1.06544812925231	-4.836942373695828	0	0	-6.499832137292094	4.578524862449487	15.3658882603168	73.69522838879341	6.145764072938317	51.08376986406279	0.08101947478042153	0.8330070765389805	0	0	0	-10.25082361013115	0	89.2357978953777	0.8330070765389805	0	0
1.78	-1.889442739425158	-1.72492837763295	-101.6373696804603	0	0.9399999998679526	0	45.83180179714466	-10.25344271910736	0	61.045469618995	1.065444438277631	-4.837133921289759	0	0	45.83180179714466	-10.25344271910736	0	61.045469618995	1.065444438277631	-4.837133921289759	0	0	-6.427347771264263	4.546647718203118	15.10907376879605	73.80444201439209	6.826462717004083	51.64530847189079	0.08381154488545361	0.8328577289924527	0	0	0	-10.25145125302243	0	89.23593487496497	0.8328577289924527	0	0
